<svg xmlns="http://www.w3.org/2000/svg" viewBox="0 0 32 32">
  <rect width="32" height="32" rx="6" fill="#002b36"/>
  <g transform="translate(3, 4)">
    <rect fill="#2aa198" x="0" y="0" width="13" height="6" rx="1.5"/>
    <rect fill="#b58900" x="0" y="0" width="2" height="6" rx="1"/>
    <rect fill="#93a1a1" x="14" y="0" width="9" height="6" rx="1.5"/>
    <rect fill="#d33682" x="24" y="0" width="3" height="6" rx="1.5"/>
  </g>
  <g transform="translate(7, 13)">
    <rect fill="#2aa198" x="0" y="0" width="8" height="6" rx="1.5"/>
    <rect fill="#93a1a1" x="9" y="0" width="11" height="6" rx="1.5"/>
    <rect fill="#cb4b16" x="13" y="0" width="2" height="6" rx="1"/>
    <rect fill="#d33682" x="21" y="0" width="3" height="6" rx="1.5"/>
  </g>
  <g transform="translate(5, 22)">
    <rect fill="#2aa198" x="0" y="0" width="6" height="6" rx="1.5"/>
    <rect fill="#93a1a1" x="7" y="0" width="15" height="6" rx="1.5"/>
    <rect fill="#d33682" x="22" y="0" width="3" height="6" rx="1.5"/>
    <rect fill="#b58900" x="23" y="0" width="2" height="6" rx="1"/>
  </g>
</svg>
