<svg xmlns="http://www.w3.org/2000/svg" viewBox="0 0 250 300">
  <defs>
    <style>
      /* Solarized Palette */
      .solarized-base03 { fill: #002b36; }
      .solarized-base1 { fill: #93a1a1; }
      .solarized-base3 { fill: #fdf6e3; }
      .solarized-yellow { fill: #b58900; }
      .solarized-orange { fill: #cb4b16; }
      .solarized-magenta { fill: #d33682; }
      .solarized-cyan { fill: #2aa198; }

      /* Fonts */
      .font-sans { font-family: -apple-system, BlinkMacSystemFont, "Segoe UI", Roboto, Helvetica, Arial, sans-serif; }
      .text-dark { fill: #93a1a1; } /* base1 */
    </style>
    <symbol id="subnet-mark-d" viewBox="0 0 200 120">
      <g transform="translate(20, 10)">
        <rect class="solarized-cyan" x="0" y="0" width="80" height="20" rx="4" />
        <rect class="solarized-yellow" x="0" y="0" width="10" height="20" rx="4" clip-path="url(#clip-top-start-d)" />
        <rect class="solarized-base1" x="82" y="0" width="60" height="20" rx="4" />
        <rect class="solarized-magenta" x="144" y="0" width="15" height="20" rx="4" />
        <clipPath id="clip-top-start-d"><rect x="0" y="0" width="10" height="20" rx="4"/></clipPath>
      </g>
      <g transform="translate(50, 40)">
        <rect class="solarized-cyan" x="0" y="0" width="50" height="20" rx="4" />
        <rect class="solarized-base1" x="52" y="0" width="70" height="20" rx="4" />
        <rect class="solarized-orange" x="80" y="0" width="12" height="20" rx="4" />
        <rect class="solarized-magenta" x="124" y="0" width="15" height="20" rx="4" />
      </g>
      <g transform="translate(30, 70)">
        <rect class="solarized-cyan" x="0" y="0" width="40" height="20" rx="4" />
        <rect class="solarized-base1" x="42" y="0" width="90" height="20" rx="4" />
        <rect class="solarized-magenta" x="134" y="0" width="15" height="20" rx="4" />
        <rect class="solarized-yellow" x="139" y="0" width="10" height="20" rx="4" clip-path="url(#clip-bottom-end-d)"/>
        <clipPath id="clip-bottom-end-d"><rect x="139" y="0" width="10" height="20" rx="4"/></clipPath>
      </g>
    </symbol>
  </defs>

  <rect class="solarized-base03" width="100%" height="100%" />

  <use href="#subnet-mark-d" x="25" y="60" width="200" height="120" />
  <text class="font-sans text-dark" x="125" y="210" text-anchor="middle" font-size="28" font-weight="500">subnet.fit</text>
</svg>