<?xml version="1.0" encoding="UTF-8"?>
<svg height="1143" preserveAspectRatio="none" style="display: block;" version="1.1" viewBox="0 0 2048 1143" width="2048" xmlns="http://www.w3.org/2000/svg"><defs><linearGradient gradientUnits="userSpaceOnUse" id="Gradient1" x1="1418.48" x2="1473.53" y1="1075.43" y2="1073.24"><stop class="stop0" offset="0" stop-color="rgb(45,49,74)" stop-opacity="1"/>
<stop class="stop1" offset="1" stop-color="rgb(38,71,81)" stop-opacity="1"/>
</linearGradient>
<linearGradient gradientUnits="userSpaceOnUse" id="Gradient2" x1="1636.03" x2="1413.95" y1="585.26" y2="548.45"><stop class="stop0" offset="0" stop-color="rgb(44,48,73)" stop-opacity="1"/>
<stop class="stop1" offset="1" stop-color="rgb(39,61,78)" stop-opacity="1"/>
</linearGradient>
</defs>
<path d="M0 0 H1080.6 h3.42 H1149.49 h3.36 H1360.02 h3.34 H1450.78 h3.29 H1527.11 h3.26 H1558.74 h3.35 H1638.71 h3 H1715.76 h3.19 h94.7 h3.42 H2048 v272.19 v3.5 v68.59 v4.87 v98.6 v3.45 v82.23 v6 v75.22 v3.51 V1143 h-564.51 h-2.78 h-2.93 h-59.44 h-3.25 h-29.01 h-3.09 h-1.32 h-27.6 h-3.46 h-10.25 h-3.41 h-14.9 h-3.56 H0 V0 Z" fill="rgb(43,54,75)" transform="translate(0)"/>
<path d="M1152.85 0 H1360.02 h3.34 H1450.78 h3.29 H1527.11 h3.26 H1558.74 h3.35 H1638.71 h3 H1715.76 h3.19 h94.7 h3.42 H2048 v272.19 v3.5 v68.59 v4.87 v98.6 v3.45 v82.23 v6 v75.22 v3.51 V1143 h-564.51 h-2.78 h-2.93 h-59.44 h-3.25 h-29.01 c-0.09 -20.69 0.64 -41.65 -0.02 -62.31 l0.29 -5.99 c-0.72 -8.55 -0.15 -26.33 -0.11 -35.27 l0.4 -68.15 c1.72 -58.1 -1.38 -114.96 -0.37 -172.98 c-0.68 -24.28 -0.17 -51.81 -0.02 -76.19 l-3.67 0.31 l-0.93 -0.27 c-6.04 -4.9 -7.16 -6.75 -5.25 -14.15 c-5.47 -9.48 -53.3 -53.96 -63.33 -63.81 c0.83 -4.4 0.57 -20.29 0.57 -25.79 c0.14 -22 -0.27 -44.01 -1.23 -65.99 c-0.31 -5.77 -1.44 -11.68 -1.66 -17.21 c-0.13 -3.06 1.85 -8.09 1.78 -11.91 c-0.45 -23.91 2.17 -52.36 0.46 -75.92 c0.69 -10.97 0.24 -27.69 0.26 -39.08 L1228.04 322.97 c-5.32 -5.3 -33.49 -32.48 -36.55 -36.94 c0.55 -0.32 1.87 -1.51 2.43 -1.99 c-2.67 -4.89 4.27 -10.76 -6.05 -16.1 c-2.33 -14.75 0.33 -38.12 1.15 -53.06 c0.24 -4.35 -1.2 -16.65 -1.46 -22.19 c-0.5 -13.05 -0.72 -26.11 -0.64 -39.18 c-4.74 -4.7 -9.45 -9.43 -14.11 -14.2 c-4.96 -4.01 -15.07 -14.66 -20 -19.57 L1152.85 0 Z" fill="url(#Gradient2)" transform="translate(0)"/>
<path d="M1642.15 613.14 c0.55 1.19 1.75 3.99 2.38 5 c19.17 0.01 44.39 -0.8 63.04 0.05 c48.88 -0.57 97.85 0.21 146.75 -0.07 c4.8 -0.03 9.85 -0.13 14.63 0.02 c6.35 0.45 12.7 0.82 19.06 1.12 c7.81 12.04 16.57 17.88 29.94 9.02 c0.45 -0.3 0.89 -0.61 1.33 -0.93 l3.95 -8.95 c38.72 -1.44 85.62 -0.64 124.77 -0.26 V1143 h-564.51 h-2.78 h-2.93 h-59.44 h-3.25 L1415.08 1019.57 c6.85 -6.69 16.32 -15.58 22.19 -22.78 c-2.7 -8.61 -0.74 -10.56 6.27 -15.64 c1.28 -56.12 0.27 -115.24 0.28 -171.63 l3.2 -0.04 c5.51 -3.69 15.75 -14.96 21.01 -20.2 l42 -41.88 c43.17 -43.07 86.63 -86.24 129.48 -129.64 c1.59 -1.61 2.23 -2.36 2.64 -4.62 Z" fill="rgb(43,54,75)" transform="translate(0)"/>
<path d="M1477.47 850.48 c0.93 7.48 0 50.34 1.65 52.92 l1.73 -0.25 l0.23 0.9 l-0.33 5.63 L1480.71 1143 h-2.93 h-59.44 h-3.25 L1415.08 1019.57 c6.85 -6.69 16.32 -15.58 22.19 -22.78 c-2.7 -8.61 -0.74 -10.56 6.27 -15.64 c1.49 0.03 3.18 -0.06 4.55 0.4 c-0.57 -3.11 -0.7 -8.21 -0.89 -11.54 c4.96 3.83 17.64 4.26 18.95 16.74 c0.6 5.78 -2.12 15.63 -5.83 19.85 l3.02 1.38 c0.04 2.42 -0.04 4.67 -0.11 7.08 l1.33 1.41 c0.13 -11.11 3.18 -16.73 4.22 -26.67 c1.05 -10.13 -6.28 -31.03 3.3 -39.64 c0.51 1.21 0.45 1.52 1.29 2.39 c2.7 -11.87 0.45 -30.37 3.56 -45.36 l0.22 -1 c1.15 -14.96 0.36 -40.42 0.32 -55.72 Z" fill="url(#Gradient1)" transform="translate(0)"/>
<path d="M1477.47 850.48 c0.93 7.48 0 50.34 1.65 52.92 l1.73 -0.25 l0.23 0.9 l-0.33 5.63 L1480.71 1143 h-2.93 c-0.05 -26.85 -0.28 -53.7 -0.68 -80.55 c-0.83 -42.55 -0.17 -84.02 0.49 -126.57 c0.12 -7.23 0.83 -23.08 -0.44 -29.69 c1.15 -14.96 0.36 -40.42 0.32 -55.72 Z" fill="rgb(35,228,151)" transform="translate(0)"/>
<path d="M1437.27 996.79 c2.08 2.08 1.9 2.61 4.27 3.13 c-6.24 3.75 -17.73 15.85 -23.04 21.27 L1418.34 1143 h-3.25 L1415.08 1019.57 c6.85 -6.69 16.32 -15.58 22.19 -22.78 Z" fill="rgb(37,234,244)" transform="translate(0)"/>
<path d="M1443.54 981.15 c1.49 0.03 3.18 -0.06 4.55 0.4 c13.51 10.57 3.4 23.2 -6.55 18.37 c-2.37 -0.53 -2.19 -1.05 -4.27 -3.13 c-2.7 -8.61 -0.74 -10.56 6.27 -15.64 Z" fill="rgb(37,234,244)" transform="translate(0)"/>
<path d="M1833.68 735.58 c13.8 -0.31 101.01 1.42 108.14 -1.89 c-1.61 4.57 -1.72 2.81 -0.01 6.71 c-5.93 -2.83 -93.37 -1.61 -106.72 -1.58 L1768.71 805.13 l40.74 -0.05 L1842.76 771.66 c53.72 -0.79 108.83 -0.21 162.65 -0.18 c5.66 1.47 11.98 1.25 17.82 1.39 c-4.99 0.29 -22.44 0.5 -25.87 1.91 c-50.47 0.74 -102.57 0.13 -153.16 0.08 c-10.85 10.96 -22.42 23.11 -33.49 33.7 l-92.06 0.19 l39.28 39.7 l3.95 3.92 l39.24 39.65 c29.66 -0.04 70.13 -1.4 98.86 -0.17 c0.41 1.3 1.09 3.69 1.69 4.78 c-30.78 -2.52 -70.29 -0.43 -101.77 -0.98 c-28.43 -28.63 -57.6 -58.69 -86.44 -86.81 L1582.03 808.44 L1512.66 877.93 c-3.34 3.35 -26 25.72 -27.83 28.43 l-4.08 3.32 l0.33 -5.63 c3.75 -2.42 24.96 -24.18 29.87 -29.12 c23.11 -23.37 46.35 -46.62 69.72 -69.74 L1764.24 804.96 c22.2 -23.06 46.7 -46.66 69.44 -69.38 Z" fill="rgb(27,190,124)" transform="translate(0)"/>
<path d="M1484.83 906.36 c-2.51 8.95 -0.2 20.13 1.35 29.2 l0.25 -0.24 l-2.91 -0.78 c-0.78 13.96 2.52 21.75 5.21 35.17 c1.65 -1.81 3.29 -3.63 4.91 -5.47 l0.87 0.67 l-1.23 5.64 c3.45 8.16 8.99 9.5 2.33 18.48 c0.25 1.71 0.55 2.96 1.33 4.5 c5.04 9.98 -1 60.52 -2.07 74.97 c-0.4 5.4 0.74 13.05 -0.85 18.07 c-2.44 -6.46 -2.46 -12.11 -2.15 -18.94 c-1.69 4.68 -2.63 8.06 -3.86 12.9 l0.01 -0.88 c-5.58 24.32 -4.61 38.63 -4.53 63.36 h-2.78 L1480.75 909.67 l4.08 -3.32 Z" fill="rgb(37,76,80)" transform="translate(0)"/>
<path d="M1710.33 667.31 c12 1.37 37.79 0.62 51 0.61 l97.05 -0.14 c9.8 -0.01 30.38 -0.69 38.81 0.17 c-0.21 1.27 -0.15 2.57 0.18 3.81 c-10.59 -0.61 -21.37 -0.46 -31.99 -0.43 L1707.89 671.22 c-20.09 20.03 -44.24 42.85 -63.41 63.23 c19.77 -0.08 51.76 -1.31 70.6 -0.24 l-3.43 1.6 l3.48 2.12 L1577.1 737.81 L1480.88 834.32 l-0.03 68.82 l-1.73 0.25 c-1.65 -2.57 -0.72 -45.44 -1.65 -52.92 l-0.06 -17.5 L1575.92 734.33 l63.92 -0 L1682.86 691.16 c5 -5.01 21.53 -23.25 27.47 -23.85 Z" fill="rgb(37,234,244)" transform="translate(0)"/>
<path d="M1710.33 667.31 c6.59 -1.3 28.58 -0.81 36.38 -0.81 l88.71 0.05 c8.11 0.01 41.25 1.54 45.75 -1.7 c3.99 -6.38 1.84 -9.14 9.44 -10.33 c2.33 -0.37 1.83 -0.27 2.94 -1.93 c-3.34 -1.36 -1.56 2.62 -3.56 -0.58 c4.98 -4.44 12.56 -0.32 19.12 -2.04 c10.82 -2.83 17.66 10.7 20.05 18.8 c-5.3 7.08 -1.12 5.68 -2.63 11.72 c-1.42 5.7 -11.27 12.1 -17 12.31 c-8.34 0.83 -13.91 -2.13 -20.09 -6.78 c-3.77 -2.83 -4.82 -12.43 -7.95 -13.2 c-5.26 -1.29 -10.02 0.68 -16.11 -1.5 c10.62 -0.02 21.4 -0.17 31.99 0.43 c-0.33 -1.24 -0.39 -2.54 -0.18 -3.81 c-8.43 -0.86 -29.01 -0.18 -38.81 -0.17 l-97.05 0.14 c-13.21 0.02 -39 0.76 -51 -0.61 Z" fill="rgb(40,71,94)" transform="translate(0)"/>
<path d="M1897.19 667.94 c0.75 -4.63 4.88 -7.93 9.56 -7.66 c4.68 0.27 8.41 4.03 8.63 8.71 c0.22 4.68 -3.13 8.78 -7.76 9.49 c-4.64 0.71 -9.06 -2.19 -10.25 -6.72 c-0.33 -1.24 -0.39 -2.54 -0.18 -3.81 Z" fill="rgb(37,234,244)" transform="translate(0)"/>
<path d="M1642.15 613.14 c0.55 1.19 1.75 3.99 2.38 5 L1599.97 662.48 c-6.6 6.57 -18.4 17.71 -23.86 24.39 c-10.66 8.8 -34.47 33.81 -45.24 44.53 l-83.7 83.42 l0.03 155.2 c0.19 3.33 0.32 8.42 0.89 11.54 c-1.37 -0.46 -3.06 -0.37 -4.55 -0.4 c1.28 -56.12 0.27 -115.24 0.28 -171.63 l3.2 -0.04 c5.51 -3.69 15.75 -14.96 21.01 -20.2 l42 -41.88 c43.17 -43.07 86.63 -86.24 129.48 -129.64 c1.59 -1.61 2.23 -2.36 2.64 -4.62 Z" fill="rgb(35,228,151)" transform="translate(0)"/>
<path d="M1904.46 848.32 l0.55 -0.86 c2.9 -4.53 6.71 -8.23 12.48 -6.03 c4.57 3.65 6.22 10.1 3.22 14.97 c-3.81 6.19 -13.23 1.09 -16.97 -2.62 c-1.25 -1.23 -2.56 -1.79 -4.29 -1.92 c-15.9 0.11 -32.63 0.16 -48.44 0.15 L1794.49 851.94 c-10.02 -0.01 -22.9 -0.69 -32.61 0.42 l-3.95 -3.92 L1904.46 848.32 Z" fill="rgb(36,111,115)" transform="translate(0)"/>
<path d="M1644.53 618.13 c19.17 0.01 44.39 -0.8 63.04 0.05 l-0.85 0.2 c-8.69 1.92 -17.97 -0.19 -26.97 1.57 c-10.22 2 -17.65 9.27 -27.43 10.69 l2.55 -3.05 c-3.31 1.01 -5.05 3.43 -7.79 5.49 l-3.07 -0.67 c-4.17 3.4 -10.41 12.33 -15.66 12.48 l-1.42 -0.86 c1.38 -3.32 7.39 -5.58 11.37 -8.65 c-1.5 -0.94 -4.28 -0.53 -6.18 -0.46 c-11.4 7.75 -44.49 49.29 -56.01 51.95 c5.46 -6.68 17.26 -17.82 23.86 -24.39 L1644.53 618.13 Z" fill="rgb(37,76,80)" transform="translate(0)"/>
<path d="M2005.41 771.48 c5.37 0.13 17.26 1.17 20.06 -2.18 c13.56 -16.18 26.62 11.01 7.62 12.89 c-3.62 0.36 -7.31 -4.78 -8.65 -7.26 c-8.61 -0.03 -18.59 0.19 -27.08 -0.15 c3.43 -1.41 20.88 -1.62 25.87 -1.91 c-5.84 -0.14 -12.16 0.07 -17.82 -1.39 Z" fill="rgb(33,169,119)" transform="translate(0)"/>
<path d="M1899.98 891.84 c4.15 -2.74 4.96 -8.8 12.18 -7.53 c16.18 2.84 1.84 32.38 -10.49 12.31 c-0.6 -1.09 -1.28 -3.48 -1.69 -4.78 Z" fill="rgb(35,228,151)" transform="translate(0)"/>
<path d="M1715.08 734.21 c3.07 -5.89 6.83 -9.18 13.87 -7.24 c10.29 9.3 -3.85 29.94 -13.82 10.96 l-3.48 -2.12 l3.43 -1.6 Z" fill="rgb(37,234,244)" transform="translate(0)"/>
<path d="M1941.82 733.69 c8.5 -14.07 22 0.11 15.38 9.87 c-5.89 4.49 -11.97 3.5 -15.39 -3.17 c-1.71 -3.9 -1.6 -2.13 0.01 -6.71 Z" fill="rgb(35,228,151)" transform="translate(0)"/>
<path d="M1813.65 0 h3.42 H2048 v272.19 v3.5 v68.59 v4.87 v98.6 v3.45 v82.23 v6 v75.22 v3.51 c-39.15 -0.38 -86.05 -1.18 -124.77 0.26 l-3.95 8.95 c-0.44 0.32 -0.88 0.63 -1.33 0.93 c-13.37 8.86 -22.13 3.02 -29.94 -9.02 c-6.36 -0.3 -12.71 -0.67 -19.06 -1.12 c-4.78 -0.15 -9.83 -0.05 -14.63 -0.02 c-48.9 0.28 -97.87 -0.5 -146.75 0.07 c-18.65 -0.85 -43.87 -0.05 -63.04 -0.05 c-0.63 -1.01 -1.83 -3.8 -2.38 -5 c-0.41 2.26 -1.05 3.01 -2.64 4.62 c-42.85 43.4 -86.31 86.57 -129.48 129.64 l-42 41.88 c-5.26 5.24 -15.5 16.52 -21.01 20.2 c0.23 -15.6 0.03 -31.71 0.04 -47.36 L1551.86 656.93 L1551.94 515.59 l-0.1 -4.6 c36.5 -35.38 73.09 -72.59 109.16 -108.55 L1660.87 279.51 L1813.68 126.42 L1813.65 0 Z" fill="rgb(43,54,75)" transform="translate(0)"/>
<path d="M1943.24 411.43 c2.25 8.76 -0.31 31.08 2.16 35.85 l3.53 0.67 L2048 447.73 v3.45 v82.23 c-5.66 3.77 -118.1 1.52 -134.22 1.49 c-26.21 26.07 -54.04 52.98 -79.53 79.52 c-9.69 1.25 -21.74 0.44 -31.67 0.54 c-51.23 0.53 -102.94 -0.93 -154.11 -0.19 c0.23 -2.56 27.42 -28.2 31.23 -31.75 c44.26 -41.22 85.63 -89.03 129.94 -129.94 c2.7 -2.28 2.34 -1.6 6.5 -1.98 c25.6 0.28 67.29 1.15 92.37 -0.13 c9.68 -3.53 28.88 0.38 36.62 -2.25 L1943.85 448.5 c-1.31 -6.42 -0.71 -29.49 -0.61 -37.07 Z" fill="rgb(43,54,75)" transform="translate(0)"/>
<path d="M1648.47 614.77 c0.23 -2.56 27.42 -28.2 31.23 -31.75 c44.26 -41.22 85.63 -89.03 129.94 -129.94 c-3.72 12.03 -27.18 28.72 -35.93 38.27 c-2.69 2.94 -13.6 18.24 -12.48 21.32 c5.4 -0.03 7.73 -11.37 12.69 -15.53 l2.29 -0.15 c-1.33 3.9 -9.84 11.25 -8.72 14.65 c3.42 0.36 6.25 -2.98 8.56 -5.4 l0.32 0.33 c-8.45 13.04 -8.48 9.57 -20.36 16.96 c-2.39 1.49 -16.87 20.12 -17.39 23.37 l1.4 1.15 c-1.61 4.25 -41.17 41.06 -46.62 46.69 l-1.46 0.31 l-0.47 -2.09 c-4.28 3.11 -17.99 14.26 -20.8 18.31 c6.02 3.11 34.64 2.8 42.49 2.77 c13.8 -14.83 29.57 -29.88 44.04 -44.27 L1839.56 487.72 l73.39 -0.07 c4.74 -0.03 27.92 -0.82 30.38 -0.58 l-1.59 2.02 c1.78 2.45 3.84 4.99 5.09 7.71 c-4.92 -5.36 -8.32 -5.68 -15.96 -5.72 c-29.89 -0.15 -59.99 -0 -89.87 0.03 L1757.23 574.48 c-9.02 8.98 -31.51 30.24 -38.95 39.42 c26.11 0.48 52.4 -0.2 78.49 -0.03 c8.38 0.05 29.75 -0.51 37.48 0.55 c-9.69 1.25 -21.74 0.44 -31.67 0.54 c-51.23 0.53 -102.94 -0.93 -154.11 -0.19 Z" fill="rgb(35,115,113)" transform="translate(0)"/>
<path d="M1943.24 411.43 c2.25 8.76 -0.31 31.08 2.16 35.85 l3.53 0.67 L2048 447.73 v3.45 c-46.02 -0.06 -93.6 0.71 -139.49 -0.21 c9.68 -3.53 28.88 0.38 36.62 -2.25 L1943.85 448.5 c-1.31 -6.42 -0.71 -29.49 -0.61 -37.07 Z" fill="rgb(34,153,116)" transform="translate(0)"/>
<path d="M1943.33 487.07 c1.96 -3.13 3.85 -5.99 7.76 -7 c1.91 -0.5 3.93 -0.19 5.58 0.88 c8.3 5.32 6.11 21.76 -9.84 15.85 c-1.25 -2.72 -3.31 -5.26 -5.09 -7.71 l1.59 -2.02 Z" fill="rgb(34,153,116)" transform="translate(0)"/>
<path d="M2011.23 275.72 L2048 275.68 v68.59 v4.87 v98.6 l-99.07 0.22 L1945.4 447.27 c0.93 -5.89 0.78 -19.96 0.76 -26.34 L1945.93 370.58 c-0.03 -7.87 -0.36 -23.21 0.66 -30.53 L2011.23 275.72 Z" fill="rgb(43,54,75)" transform="translate(0)"/>
<path d="M1948.93 447.95 c8.85 -9.94 21.93 -22.31 31.65 -32 L2048 349.13 v98.6 l-99.07 0.22 Z" fill="rgb(43,54,75)" transform="translate(0)"/>
<path d="M1946.59 340.05 c0.96 11.46 0.53 27.05 0.52 38.84 l-0.12 65.82 L2048 344.27 v4.87 L1980.58 415.95 c-9.72 9.69 -22.8 22.06 -31.65 32 L1945.4 447.27 c0.93 -5.89 0.78 -19.96 0.76 -26.34 L1945.93 370.58 c-0.03 -7.87 -0.36 -23.21 0.66 -30.53 Z" fill="rgb(35,115,113)" transform="translate(0)"/>
<path d="M1915.35 538.44 c14.18 -0.01 127.32 -1.23 132.65 0.97 v75.22 v3.51 c-39.15 -0.38 -86.05 -1.18 -124.77 0.26 l-3.95 8.95 c-0.44 0.32 -0.88 0.63 -1.33 0.93 c-13.37 8.86 -22.13 3.02 -29.94 -9.02 c-6.36 -0.3 -12.71 -0.67 -19.06 -1.12 c9.52 -0.31 17.94 -0.21 27.48 0.04 l-1.7 -2.48 c-10.06 -2.68 -49.95 1.41 -55.01 -1.93 L1840.4 613 L1915.35 538.44 Z" fill="rgb(43,54,75)" transform="translate(0)"/>
<path d="M1888.86 613.53 c9.57 -17.17 26.31 -17.74 34.04 0.73 c37.98 1.63 86.52 0.69 125.1 0.37 v3.51 c-39.15 -0.38 -86.05 -1.18 -124.77 0.26 l-3.95 8.95 c-0.44 0.32 -0.88 0.63 -1.33 0.93 c-13.37 8.86 -22.13 3.02 -29.94 -9.02 c-6.36 -0.3 -12.71 -0.67 -19.06 -1.12 c9.52 -0.31 17.94 -0.21 27.48 0.04 l-1.7 -2.48 c-10.06 -2.68 -49.95 1.41 -55.01 -1.93 L1840.4 613 c4.95 2.44 41.14 0.74 48.46 0.53 Z" fill="rgb(36,111,115)" transform="translate(0)"/>
<path d="M1894.73 615.69 c4.31 -2.78 9.03 -12.39 16.93 -6.77 c5.27 3.75 3.66 12.37 -1.92 15.98 c-6.29 1.82 -9.93 -2.11 -13.31 -6.73 l-1.7 -2.48 Z" fill="rgb(37,234,244)" transform="translate(0)"/>
<path d="M1803.63 208.08 l1 0.8 l2.51 -2.11 c0.35 32.91 -0.56 66.22 -0.32 99.14 c0.05 6.07 -0.44 34.07 0.74 38.55 c-10.15 10.13 -28.59 27.36 -37.42 37.53 c0.02 21.34 -0.17 43.04 0.11 64.36 c-41.34 41.08 -82.89 83.63 -124.57 124.12 c-1.59 9.45 0.21 22.41 -0.44 32 c-0.27 3.62 -1.01 7.92 0.51 11.09 c1.49 0.92 1.16 1.01 2.72 1.2 c51.17 -0.74 102.88 0.72 154.11 0.19 c9.93 -0.1 21.98 0.71 31.67 -0.54 c25.49 -26.55 53.32 -53.46 79.53 -79.52 c16.12 0.03 128.56 2.28 134.22 -1.49 v6 c-5.33 -2.2 -118.47 -0.98 -132.65 -0.97 L1840.4 613 l-0.68 0.76 c5.06 3.33 44.95 -0.75 55.01 1.93 l1.7 2.48 c-9.54 -0.25 -17.96 -0.35 -27.48 -0.04 c-4.78 -0.15 -9.83 -0.05 -14.63 -0.02 c-48.9 0.28 -97.87 -0.5 -146.75 0.07 c-18.65 -0.85 -43.87 -0.05 -63.04 -0.05 c-0.63 -1.01 -1.83 -3.8 -2.38 -5 c-0.92 -11.45 -0.26 -31.3 -0.17 -43.4 L1676.35 535.39 l4 -4.17 L1767.03 444.74 c0.5 -36.66 -0.23 -73.68 -0.11 -110.34 c0.04 -8.85 -0.71 -41.63 0.45 -48.19 l2.42 -0.17 c0.98 7.5 0.46 24.23 0.43 32.32 l-0.17 59 c11.34 -11.19 22.6 -22.46 33.78 -33.81 L1803.69 329.73 c1.11 -38.91 -1.92 -84.15 -0.06 -121.65 Z" fill="rgb(37,207,214)" transform="translate(0)"/>
<path d="M2007.68 123.08 l0.6 -0.94 c11.52 -17.94 27.5 8.23 8.63 11.7 c-6.11 -0.91 -7.63 -7.53 -12.2 -7.67 c-8.03 -0.24 -17.07 -0.18 -25.13 -0.19 l-57.53 0.1 L1900.59 147.68 c0.08 45.35 0.6 91.59 0.16 136.87 c-10.51 10.87 -21.22 21.56 -32.12 32.05 c0.03 24.85 0.65 52.36 0.03 76.99 c-5.59 5.62 -51.68 51.11 -52.23 53.41 l0.66 0.7 l-0.95 3.41 c-4.16 0.38 -3.8 -0.31 -6.5 1.98 c-44.31 40.92 -85.68 88.72 -129.94 129.94 c-3.81 3.55 -31 29.19 -31.23 31.75 c-1.56 -0.19 -1.23 -0.28 -2.72 -1.2 c-1.52 -3.17 -0.78 -7.47 -0.51 -11.09 l0.91 6.33 l1.28 0.73 c17.64 -16.78 33.75 -35.42 51.22 -52.2 C1734.4 523 1769.71 488.23 1804.59 453.02 l60.67 -60.6 l0.07 -84.43 c0.01 -12.5 0.6 -36.83 -1.09 -48.5 l3.08 1.44 l2.32 -1.65 c-1.55 13.91 -1.02 38.25 -1.04 52.76 c9.71 -9.48 19.33 -19.04 28.86 -28.69 L1897.26 146.67 c7.74 -7.98 15.57 -15.88 23.48 -23.68 l86.94 0.1 Z" fill="rgb(27,190,124)" transform="translate(0)"/>
<path d="M1813.65 0 h3.42 L1817.06 123.41 c20.54 -20.53 41.34 -41.02 61.61 -61.74 c2.39 -2.44 -1.08 -15.19 7.89 -16.5 c6.97 -1.02 12.08 4.11 11.9 10.9 c-4.94 7.63 -14.23 4.91 -20 10.76 c-24.33 24.67 -49 49 -73.5 73.49 L1664.29 281.12 l0.02 122.9 c-36.77 36.66 -74.91 75.85 -112.37 111.57 l-0.1 -4.6 c36.5 -35.38 73.09 -72.59 109.16 -108.55 L1660.87 279.51 L1813.68 126.42 L1813.65 0 Z" fill="rgb(35,115,113)" transform="translate(0)"/>
<path d="M1645.68 570.47 c0.85 4.58 0.2 9.41 1.39 15.42 l0.81 0.14 c9.12 -8.7 15.95 -19.37 25.02 -27.9 c15.5 -14.58 31.42 -33.63 49.47 -44.54 c3.21 -1.94 12.4 -5.06 11.65 -9.49 c-1.32 1.66 -2.08 3.05 -4.04 3.72 l-0.2 -1.16 c3.58 -4.78 5.55 -6.66 9.83 -10.76 c2.87 -0.36 8.47 -1.24 11.1 -0.94 c-0.73 1.67 -1.06 1.86 -2.32 3.1 l-0.4 0.38 c11.79 5.34 41.64 -41.56 56.6 -45.42 C1769.71 488.23 1734.4 523 1698.65 557.34 c-17.47 16.78 -33.58 35.42 -51.22 52.2 L1646.15 608.8 l-0.91 -6.33 c0.65 -9.6 -1.15 -22.55 0.44 -32 Z" fill="rgb(37,76,80)" transform="translate(0)"/>
<path d="M1803.69 329.73 c-3.68 -5.5 1.03 -91.99 -1.7 -103.87 c-0.75 -3.31 -12.33 -5.35 -15.23 -9.52 c-18.67 -26.76 12.1 -62.86 37.63 -34.64 c0.72 0.8 1.72 3.05 2.21 4.1 l-0.59 -0.56 c3.33 7.95 6 26.4 -2.26 30.98 c-23.06 12.77 -13.28 12.48 -15.63 34.78 c-1.52 14.43 2.63 85.63 -0.56 93.46 c-1.18 -4.48 -0.69 -32.48 -0.74 -38.55 c-0.24 -32.92 0.67 -66.23 0.32 -99.14 l-2.51 2.11 l-1 -0.8 c-1.86 37.5 1.17 82.74 0.06 121.65 Z" fill="rgb(40,71,94)" transform="translate(0)"/>
<path d="M1803.63 208.08 c-3.98 -3.11 -7.72 -6.92 -8.05 -12.28 c2.93 -8.3 14.83 -6.24 18.89 -0.25 c1.3 6.3 -2.14 8.57 -7.33 11.22 l-2.51 2.11 l-1 -0.8 Z" fill="rgb(37,234,244)" transform="translate(0)"/>
<path d="M1943.17 283.56 c5.2 -5.24 35.34 -36.71 39.72 -38.98 l5.01 -0.36 c-14.06 13.02 -27.88 27.2 -41.46 40.79 l0.09 50.3 L2010.36 272.09 L2048 272.19 v3.5 l-36.77 0.04 L1946.59 340.05 c-1.02 7.33 -0.69 22.66 -0.66 30.53 l0.23 50.35 c0.02 6.37 0.17 20.45 -0.76 26.34 c-2.47 -4.77 0.09 -27.09 -2.16 -35.85 c-1.52 -38.74 -0.09 -88.28 -0.07 -127.87 Z" fill="rgb(27,190,124)" transform="translate(0)"/>
<path d="M1676.1 452.99 c9.81 -9.01 19.21 -19.94 29.32 -28.51 l0.62 2.88 c-4.09 5.73 -20.7 21.47 -26.47 27.08 c0.02 10.41 -0.78 72.99 0.78 76.79 l-4 4.17 c-0.36 -27.32 -0.2 -55.04 -0.25 -82.4 Z" fill="rgb(35,115,113)" transform="translate(0)"/>
<path d="M1817.09 447.69 l85.81 0.09 c7.72 0.01 34.66 -0.36 40.95 0.72 l1.28 0.22 c-7.74 2.63 -26.94 -1.27 -36.62 2.25 c-25.08 1.28 -66.77 0.41 -92.37 0.13 l0.95 -3.41 Z" fill="rgb(33,169,119)" transform="translate(0)"/>
<path d="M1982.89 244.58 c4.09 -7.59 -2.26 -14.39 8.97 -18.11 c12.87 0.05 15.71 21.49 -3.96 17.75 l-5.01 0.36 Z" fill="rgb(35,228,151)" transform="translate(0)"/>
<path d="M1705.42 424.48 c-8.38 -12.79 9.17 -18.4 16.7 -8.85 c2.55 11.12 -7.37 13.07 -16.08 11.73 l-0.62 -2.88 Z" fill="rgb(36,111,115)" transform="translate(0)"/>
<path d="M1767.37 286.22 c-1.27 -1.07 -2.52 -2.16 -3.76 -3.26 c-9.06 -8.03 0.06 -21.97 11.16 -13.83 c6.02 8.65 -0.77 11.84 -4.98 16.91 l-2.42 0.17 Z" fill="rgb(37,234,244)" transform="translate(0)"/>
<path d="M1864.24 259.48 c-5.03 -2.44 -8.06 -7.3 -6.75 -12.93 c5.46 -6.32 16.21 -4.23 19.21 3.25 c-0.53 4.48 -2.86 7.54 -7.06 9.48 l-2.32 1.65 l-3.08 -1.44 Z" fill="rgb(35,228,151)" transform="translate(0)"/>
<path d="M1152.85 0 H1360.02 h3.34 H1450.78 h3.29 H1527.11 l0.02 64.6 L1558.74 95.85 l0.22 45.08 c-6.63 6.59 -56.17 57.09 -58.75 57.84 l-1.02 2.47 l-2.02 0.72 c-1.57 3.79 -46.86 48.15 -53.38 54.07 c-0.07 41.6 0.23 83.9 -0.43 125.43 l-2.47 2.33 l2.51 3 c0.79 20.94 -0.39 46.35 -0.94 66.92 c-0.5 19.1 0.72 34.81 0.99 52.41 l0.48 83.25 c0.05 12.8 1.64 44.27 -0.59 55.29 c-12.56 14.07 -41.14 47.81 -54.13 59.24 c-4.38 -1.32 -5.87 -0.77 -10.4 0.17 L1376.4 708 c-5.47 -9.48 -53.3 -53.96 -63.33 -63.81 c0.83 -4.4 0.57 -20.29 0.57 -25.79 c0.14 -22 -0.27 -44.01 -1.23 -65.99 c-0.31 -5.77 -1.44 -11.68 -1.66 -17.21 c-0.13 -3.06 1.85 -8.09 1.78 -11.91 c-0.45 -23.91 2.17 -52.36 0.46 -75.92 c0.69 -10.97 0.24 -27.69 0.26 -39.08 L1228.04 322.97 c-5.32 -5.3 -33.49 -32.48 -36.55 -36.94 c0.55 -0.32 1.87 -1.51 2.43 -1.99 c-2.67 -4.89 4.27 -10.76 -6.05 -16.1 c-2.33 -14.75 0.33 -38.12 1.15 -53.06 c0.24 -4.35 -1.2 -16.65 -1.46 -22.19 c-0.5 -13.05 -0.72 -26.11 -0.64 -39.18 c-4.74 -4.7 -9.45 -9.43 -14.11 -14.2 c-4.96 -4.01 -15.07 -14.66 -20 -19.57 L1152.85 0 Z" fill="rgb(43,54,75)" transform="translate(0)"/>
<path d="M1450.78 0 h3.29 H1527.11 l0.02 64.6 L1558.74 95.85 l0.22 45.08 c-6.63 6.59 -56.17 57.09 -58.75 57.84 l-1.02 2.47 l-2.02 0.72 c-1.57 3.79 -46.86 48.15 -53.38 54.07 c-0.07 41.6 0.23 83.9 -0.43 125.43 l-2.47 2.33 l2.51 3 c0.79 20.94 -0.39 46.35 -0.94 66.92 c-0.5 19.1 0.72 34.81 0.99 52.41 l0.48 83.25 c0.05 12.8 1.64 44.27 -0.59 55.29 c-12.56 14.07 -41.14 47.81 -54.13 59.24 c-4.38 -1.32 -5.87 -0.77 -10.4 0.17 c-9.35 -8.73 -17.93 -17.41 -26.91 -26.5 L1351.84 566.72 c16.43 -14.83 35.34 -34.87 51.02 -50.87 c-0.96 -41.23 0.15 -87.39 0.15 -129.08 c-20.82 -19.76 -42.43 -42.04 -63.03 -62.33 c0.53 -15.81 1.17 -27.97 0.88 -43.83 L1336.7 276.15 c1.39 -5.43 0.61 -32.91 0.6 -40.07 c2.91 -2.8 5.15 -5.2 7.85 -8.21 c35.39 -34.55 70.66 -70.4 105.68 -105.43 L1450.78 0 Z" fill="rgb(43,54,75)" transform="translate(0)"/>
<path d="M1425.09 368.44 l15.8 15.35 l2.51 3 c0.79 20.94 -0.39 46.35 -0.94 66.92 c-0.5 19.1 0.72 34.81 0.99 52.41 l0.48 83.25 c0.05 12.8 1.64 44.27 -0.59 55.29 c-1.82 -11.6 0.56 -25.19 -0.82 -35.96 c-2.64 -20.66 1.97 -55.42 -1.65 -74.54 l-0.45 0.2 c-0.32 3.68 -0.57 8 -1.3 11.57 L1436.3 543.6 c-1.51 1.6 -1.32 9.3 -1.37 12.06 l-0.99 0.38 c-1.22 -6.73 -3.47 -17.86 -3.92 -24.55 c-0.85 -12.71 -0.25 -23.16 -2.44 -35.98 l-0.13 3.62 c-1.25 -7.1 -3.74 -44.94 -3.35 -52.1 l4.2 -2.33 c0.95 -2.77 -2.86 -3.87 -2.92 -5.06 c-0.14 -2.84 0.07 -9.74 0.13 -12.55 l0.03 0.52 l1.73 -12.86 l0.23 0.69 c0.77 -4.57 2.01 -15.87 5.58 -18.5 l-0.49 5.2 l0.88 0.42 c6.75 -3.38 1.93 -8.49 4.74 -12.14 l2.61 3.45 l0.62 -0.39 c-0.42 -9.01 -0.79 -5.1 -8.51 -13.57 L1432.47 379.4 c-0.88 0.91 -1.04 0.96 -1.56 2.21 l-1 0.38 c-1.25 -5.1 -3.03 -8.7 -4.82 -13.56 Z" fill="rgb(37,76,80)" transform="translate(0)"/>
<path d="M1450.78 0 h3.29 L1454.04 124.29 c-37.07 37.04 -76.91 75.63 -112.91 113.34 L1340.86 280.6 L1336.7 276.15 c1.39 -5.43 0.61 -32.91 0.6 -40.07 c2.91 -2.8 5.15 -5.2 7.85 -8.21 c35.39 -34.55 70.66 -70.4 105.68 -105.43 L1450.78 0 Z" fill="rgb(35,115,113)" transform="translate(0)"/>
<path d="M1496.4 31.61 c2.35 1 2.25 1.44 4.28 1.04 c-0.93 55.32 0.44 111 -0.47 166.12 l-1.02 2.47 l-2.02 0.72 c-1.23 -46.98 0.84 -94.84 -0.06 -141.89 c-0.17 -9.13 0.46 -19.48 -0.71 -28.46 Z" fill="rgb(37,234,244)" transform="translate(0)"/>
<path d="M1370.57 271.63 c2.66 0.53 1.87 0.76 4.05 -0.14 c-0.71 13.67 -0.58 27.26 -0.57 40.95 c22.29 22.23 48.01 46.61 69.31 69.02 l-2.47 2.33 L1425.09 368.44 c-12.9 -14.97 -39.53 -39.88 -54.22 -54.5 c0.13 -14.11 0.03 -28.22 -0.3 -42.32 Z" fill="rgb(40,188,194)" transform="translate(0)"/>
<path d="M1496.4 31.61 c-18.84 -9.92 6.11 -27.46 11.59 -9.8 c-0.16 6.07 -2.76 7.71 -7.31 10.83 c-2.03 0.4 -1.93 -0.03 -4.28 -1.04 Z" fill="rgb(37,234,244)" transform="translate(0)"/>
<path d="M1370.57 271.63 c-15.12 -10.06 -1.62 -21.51 8.44 -16.12 c5.67 6.21 2.8 12.83 -4.39 15.98 c-2.18 0.9 -1.39 0.67 -4.05 0.14 Z" fill="rgb(37,234,244)" transform="translate(0)"/>
<path d="M1363.36 0 H1450.78 l0.05 122.44 c-35.02 35.02 -70.29 70.87 -105.68 105.43 c-3.49 -3.44 1.47 -22.8 -0.64 -28.67 l-1.78 1.53 l-0.61 -4.58 c-6.35 -6.01 -1.97 -11.35 -5.76 -15.93 c-0.21 2.04 -0.26 2.74 -0.84 4.69 l-0.88 -1.88 c-0.08 -4.49 2.77 -6 4.89 -11.19 l0.29 -0.74 c-4.47 4.21 -9.18 9.44 -13.38 13.27 c-1.1 -7.74 -1.58 -25.1 -0.65 -32.8 c12.3 -12.78 25.09 -25.49 37.57 -38.12 V0 Z" fill="rgb(43,54,75)" transform="translate(0)"/>
<path d="M1396.62 38.86 c2.84 6.2 -0.34 61.51 1.94 73.16 L1358.57 151.71 c-3.15 3.14 -16.64 16.37 -18.75 19.4 c-4.47 4.21 -9.18 9.44 -13.38 13.27 c-1.1 -7.74 -1.58 -25.1 -0.65 -32.8 c0.82 5.68 0.63 19.68 0.7 26.02 c7.32 -5.55 20.24 -18.86 26.98 -25.58 L1395.69 109.75 c0.23 -11.75 -1.02 -62.98 0.93 -70.88 Z" fill="rgb(35,115,113)" transform="translate(0)"/>
<path d="M1396.62 38.86 c-5.37 -2.66 -10.45 -6.6 -9.62 -13.05 c4.64 -6.34 17.34 -7.01 20.94 0.35 c0.27 5.25 -4.65 10.1 -9 12.34 c0.04 8.53 0.7 68.68 -0.38 73.52 c-2.28 -11.65 0.9 -66.96 -1.94 -73.16 Z" fill="rgb(36,111,115)" transform="translate(0)"/>
<path d="M1360.02 0 h3.34 v113.46 c-12.48 12.63 -25.27 25.34 -37.57 38.12 c-0.93 7.7 -0.45 25.06 0.65 32.8 c4.2 -3.84 8.91 -9.07 13.38 -13.27 l-0.29 0.74 c-2.12 5.18 -4.97 6.69 -4.89 11.19 l0.88 1.88 c0.58 -1.96 0.63 -2.65 0.84 -4.69 c3.79 4.58 -0.59 9.92 5.76 15.93 l0.61 4.58 l1.78 -1.53 c2.11 5.87 -2.85 25.23 0.64 28.67 c-2.7 3.01 -4.94 5.41 -7.85 8.21 c0.01 7.17 0.79 34.65 -0.6 40.07 l4.16 4.45 c0.29 15.87 -0.35 28.02 -0.88 43.83 c20.6 20.29 42.21 42.58 63.03 62.33 c0 41.7 -1.11 87.85 -0.15 129.08 c-15.68 16 -34.59 36.05 -51.02 50.87 L1351.9 677.56 c8.98 9.1 17.56 17.78 26.91 26.5 L1376.4 708 c-5.47 -9.48 -53.3 -53.96 -63.33 -63.81 c0.83 -4.4 0.57 -20.29 0.57 -25.79 c0.14 -22 -0.27 -44.01 -1.23 -65.99 c-0.31 -5.77 -1.44 -11.68 -1.66 -17.21 c-0.13 -3.06 1.85 -8.09 1.78 -11.91 c-0.45 -23.91 2.17 -52.36 0.46 -75.92 c0.69 -10.97 0.24 -27.69 0.26 -39.08 L1228.04 322.97 c-5.32 -5.3 -33.49 -32.48 -36.55 -36.94 c0.55 -0.32 1.87 -1.51 2.43 -1.99 c2.17 2.09 4.3 4.22 6.4 6.38 c38.94 38.8 77.95 79.15 117.19 117.37 c-0.96 6.93 -0.65 13.99 -0.63 20.97 c-0.06 26.2 0.33 52.41 0.53 78.6 c-0.59 8.67 2.27 20.32 1.68 28.56 c-1.8 25.1 -2.09 50.22 -2.05 75.38 c0.01 6.39 -0.91 28.13 0.69 32.77 l30.66 30.38 c0.6 -35.78 0.1 -72.93 0.1 -108.81 c17.38 -16.87 34.51 -33.99 51.4 -51.36 L1399.75 388.26 c-20.24 -20.92 -41.78 -41.89 -62.46 -62.47 c0.17 -14.81 0.18 -29.63 0.03 -44.45 c-5.1 -4.67 -10.19 -9.55 -15.23 -14.31 l0.03 -116.7 L1360.09 112.09 L1360.02 0 Z" fill="rgb(37,207,214)" transform="translate(0)"/>
<path d="M1339.82 171.1 l-0.29 0.74 c-2.12 5.18 -4.97 6.69 -4.89 11.19 l0.88 1.88 c0.58 -1.96 0.63 -2.65 0.84 -4.69 c3.79 4.58 -0.59 9.92 5.76 15.93 l0.61 4.58 l1.78 -1.53 c2.11 5.87 -2.85 25.23 0.64 28.67 c-2.7 3.01 -4.94 5.41 -7.85 8.21 c0.01 7.17 0.79 34.65 -0.6 40.07 L1325.62 265.84 c-0.04 -18.5 0.78 -35.92 1.99 -54.34 c0.59 -8.92 -2.65 -15.89 -1.17 -27.13 c4.2 -3.84 8.91 -9.07 13.38 -13.27 Z" fill="rgb(40,71,94)" transform="translate(0)"/>
<path d="M1317.51 407.78 c3.01 18.71 -0.05 44.11 3.02 63.71 c0.57 3.63 -4.45 12.01 2.32 14.9 L1324 485.78 c-1.24 -5.45 -2.8 -1.12 -2.67 -6.66 c3.17 1.46 3.39 5.15 5.62 6.85 c-0.61 -2.31 -1.1 -4.18 -1.52 -6.53 c3.03 1.57 6.11 13.95 5.94 16.47 l2.5 -4.31 l0.86 0.14 c0.35 3.23 2.36 16.92 1.29 18.74 l-1.58 0.53 l-0.03 3.31 c3.24 2.57 3.82 -1.8 4.09 6.8 c0.56 17.35 1.7 29.81 -3.05 46.72 l0.28 -0.43 c-1.9 8.2 -3.05 12.74 -3.55 21.12 c4.27 3.84 2.4 5.75 0.67 11.05 L1332.3 599.2 l0.35 -4.76 L1330.72 592.5 l-1.29 0.23 c0.03 2.76 0.15 5 -0.27 7.75 c-1.66 -0.87 -2.5 -2.29 -3.74 -3.83 c0.23 -3.75 0.64 -5.09 1.59 -8.68 l-0.7 -0.52 c-3.74 3.26 -3.33 4.73 -6.32 7.72 c-2.4 12.52 0.92 36.62 -2.26 48.89 c-1.6 -4.64 -0.68 -26.38 -0.69 -32.77 c-0.04 -25.16 0.25 -50.28 2.05 -75.38 c0.59 -8.24 -2.27 -19.89 -1.68 -28.56 c-0.2 -26.2 -0.59 -52.4 -0.53 -78.6 c-0.02 -6.98 -0.33 -14.04 0.63 -20.97 Z" fill="rgb(40,71,94)" transform="translate(0)"/>
<path d="M1172.81 139.31 c5.78 0.98 9.08 5.16 12.73 9.02 c4.22 4.46 5.5 21.65 6.77 23.32 l-0.05 -1.38 c1.01 3.01 1.61 6.15 3.92 8.08 l1.7 -0.83 c1.48 3.34 1.54 5.16 0.01 8.47 l2.17 -1.75 c-0.03 -2.24 -0.41 -8.96 0.5 -10.49 c8.73 30.65 -3 67 3.82 98.12 c0.83 3.75 -3.21 14.45 -4.06 18.56 c-2.1 -2.16 -4.23 -4.28 -6.4 -6.38 c-2.67 -4.89 4.27 -10.76 -6.05 -16.1 c-2.33 -14.75 0.33 -38.12 1.15 -53.06 c0.24 -4.35 -1.2 -16.65 -1.46 -22.19 c-0.5 -13.05 -0.72 -26.11 -0.64 -39.18 c-4.74 -4.7 -9.45 -9.43 -14.11 -14.2 Z" fill="rgb(40,71,94)" transform="translate(0)"/>
<path d="M1221.39 47.03 l-1 -0.54 c-19.57 -10.72 6.34 -29.13 11.36 -9.74 c-0.74 6.89 -7.03 5.85 -7.53 13.4 c-1.36 20.52 0.2 42.06 -0.41 62.64 c1.04 20.95 0.12 51.66 0.11 73.32 c12.12 -11.88 24.12 -23.9 35.97 -36.05 c-0.07 -16.47 0.36 -37.73 -0.96 -53.76 c-9.31 -5.36 -10.12 -12.19 -2.07 -19.04 c5.05 -0.77 6.33 -0.82 11.32 1.15 c11.42 9.04 -0.02 13.62 -3.25 17.78 c-3.26 4.19 -1.72 51.3 -1.69 55.5 c-12.57 13.17 -26.42 26.64 -39.31 39.62 l-0.06 67.02 c16.4 16.39 33 33.72 49.42 49.84 l-0.38 0.41 l2.03 1 c-10.08 -3.79 -14.73 -10.47 -22.23 -17.94 L1220.19 259.22 L1220.25 124.43 c-0.01 -10.66 -0.78 -71.5 1.14 -77.4 Z" fill="rgb(33,169,119)" transform="translate(0)"/>
<path d="M1256.86 77.26 c5.05 -0.77 6.33 -0.82 11.32 1.15 c0.89 2.4 2.6 6.35 1.43 8.52 c-2.08 3.87 -4.44 10.28 -8.61 12.03 c-3.38 -2.74 -5.89 -8.75 -7.2 -12.89 c-0.94 -2.98 1.44 -6.22 3.06 -8.82 Z" fill="rgb(37,234,244)" transform="translate(0)"/>
<path d="M1718.95 0 h94.7 l0.03 126.42 L1660.87 279.51 L1661 402.44 c-36.07 35.96 -72.66 73.17 -109.16 108.55 c0.4 -18.33 0.04 -37.93 0.04 -56.36 l42.59 -42.5 L1594.3 254.37 L1637.98 210.2 l58.19 -0.05 c18.88 -18.81 45.38 -44.65 64.22 -64.67 l0.21 -2.9 c-1.71 -8.03 -1.09 -22.84 -1.07 -31.42 L1759.72 59.21 c0.02 -5.5 0.32 -18.15 -0.79 -22.77 c-1.05 7.64 -0.61 21.96 -0.59 30.03 l0.12 51.24 c0.01 5.78 0.25 20.57 -0.79 25.62 c-2.04 3.18 -17.86 18.66 -21.35 22.11 l-41.66 41.6 c-17.78 -0.1 -35.55 -0.1 -53.32 0 c25.87 -24.93 52.16 -52.05 77.62 -77.63 L1718.95 0 Z" fill="rgb(43,54,75)" transform="translate(0)"/>
<path d="M1757.67 143.34 c-0.8 -7.67 -0.41 -21.01 -0.41 -29.12 L1757.27 62.78 c-0.01 -7.34 0.27 -15.55 -0.08 -22.76 c-0.33 -6.85 -10.81 -12.92 -5.05 -21.06 c7.66 -4.16 16.26 -1.59 16.58 8.44 c-1.24 4.64 -7.37 7.07 -7.45 9.18 c-1.26 35.27 0.26 70.71 -0.67 105.99 c-1.71 -8.03 -1.09 -22.84 -1.07 -31.42 L1759.72 59.21 c0.02 -5.5 0.32 -18.15 -0.79 -22.77 c-1.05 7.64 -0.61 21.96 -0.59 30.03 l0.12 51.24 c0.01 5.78 0.25 20.57 -0.79 25.62 Z" fill="rgb(40,188,194)" transform="translate(0)"/>
<path d="M1562.09 0 H1638.71 l0.16 140.52 c-21.67 21.62 -43.53 43.12 -65.43 64.52 c-5.48 6.73 -16.37 11.97 -21.67 18.05 c-32.89 37.75 -68.76 73.16 -104.64 108.02 c0.42 -23.99 -0.01 -49.43 -0.05 -73.52 c38.51 -37.72 76.8 -77.11 115.01 -115.3 V0 Z" fill="rgb(43,54,75)" transform="translate(0)"/>
<path d="M1527.11 0 h3.26 H1558.74 h3.35 v142.3 c-38.21 38.19 -76.5 77.58 -115.01 115.3 c0.04 24.09 0.47 49.53 0.05 73.52 c35.88 -34.86 71.75 -70.27 104.64 -108.02 c5.3 -6.09 16.19 -11.32 21.67 -18.05 c21.9 -21.4 43.76 -42.9 65.43 -64.52 L1638.71 0 h3 l0.15 141.83 c-4.71 4.64 -14.19 13.48 -18.05 18.24 c-25.01 22.64 -46.74 47.89 -69.86 72.13 c-17.93 18.8 -43.69 36.97 -60.09 57.6 c-10.17 7.96 -36.46 36 -46.68 46.45 l0.24 24.02 c-0.26 26.22 0.06 52.45 0.99 78.65 c0.13 3.74 1.19 6.68 1.57 10.38 c1.63 15.65 -1.43 30.65 -1.95 46.36 c-1.19 35.59 -0.56 71.3 -0.84 106.91 c-0.04 3.94 -0.14 8.22 0.13 12.12 L1447.1 645.2 c-6.79 7.62 -51.64 56.02 -54.37 61.76 l-3.52 -3.07 c12.99 -11.43 41.57 -45.17 54.13 -59.24 c2.23 -11.02 0.64 -42.49 0.59 -55.29 L1443.45 506.12 c-0.27 -17.6 -1.49 -33.31 -0.99 -52.41 c0.55 -20.57 1.73 -45.98 0.94 -66.92 l-2.51 -3 l2.47 -2.33 c0.66 -41.53 0.36 -83.83 0.43 -125.43 c6.52 -5.92 51.81 -50.28 53.38 -54.07 l2.02 -0.72 l1.02 -2.47 c2.58 -0.75 52.12 -51.24 58.75 -57.84 L1558.74 95.85 L1527.13 64.6 L1527.11 0 Z" fill="rgb(27,190,124)" transform="translate(0)"/>
<path d="M1530.37 0 H1558.74 v91.31 L1530.33 63.12 L1530.37 0 Z" fill="rgb(43,54,75)" transform="translate(0)"/>
<path d="M1715.76 0 h3.19 l0.01 129.43 c-25.46 25.57 -51.75 52.7 -77.62 77.63 c17.77 -0.1 35.54 -0.1 53.32 -0 l41.66 -41.6 c3.49 -3.46 19.31 -18.93 21.35 -22.11 c1.04 -5.05 0.8 -19.84 0.79 -25.62 L1758.34 66.47 c-0.02 -8.07 -0.46 -22.4 0.59 -30.03 c1.11 4.63 0.81 17.28 0.79 22.77 l-0.19 51.94 c-0.02 8.58 -0.64 23.39 1.07 31.42 l-0.21 2.9 c-18.84 20.01 -45.34 45.86 -64.22 64.67 L1637.98 210.2 L1594.3 254.37 l0.17 157.75 l-42.59 42.5 c0 18.43 0.36 38.03 -0.04 56.36 l0.1 4.6 L1551.86 656.93 L1447.06 762.12 c-0.01 15.65 0.19 31.76 -0.04 47.36 l-3.2 0.04 l0.19 -49.04 L1507.22 697.23 l4.1 -4.34 c12.27 -11.72 25.01 -25.02 37.06 -37.12 L1548.44 421.42 L1548.43 363.14 c-0.01 -6.8 0.3 -26.76 -1 -32.52 l5.3 0.47 c-2.43 7.57 -0.86 104.18 -0.86 118.9 c12.61 -13.17 26.29 -26.49 39.2 -39.45 L1591 252.84 L1715.62 128.07 L1715.76 0 Z" fill="rgb(37,207,214)" transform="translate(0)"/>
<path d="M1447.42 360.27 c3.56 5.21 -1.42 36.69 3.32 43.33 c3.61 -2.74 -1.11 -4.38 3.49 -3.78 c8.55 6.77 8.28 13.45 10.58 24.49 v-2.88 c1.44 6.94 3.37 37.69 1.18 41.66 c-0.96 -1 -1.82 -1.86 -2.7 -2.94 c-0.43 3.04 1.26 3.57 1.09 4.28 c-0.55 2.4 -1.34 5.92 -1.86 8.35 l3.28 3.28 c-2.04 -2.6 -3.13 -6.96 0 -8.96 c4.93 15.57 -5.66 23.97 -1.06 31.13 l1.18 -1.22 L1465.8 496.37 c-0.46 -2.34 -0.55 -2.66 -0.42 -4.99 l1.43 -0.25 c5.74 8.61 -10.78 20.1 -0.9 32.79 c-0.17 3.21 0.35 3.17 -1.18 5.42 c-1.04 -1.25 -1.53 -2.09 -2.86 -2.94 l0.92 4 l2.33 1.26 c0.19 2.85 -0.12 3.31 -1.04 6.11 l-1.33 0.68 c-2.18 -2.77 -2.9 -5.68 -4.02 -9.02 l1.06 -0.88 l-1.33 -0.11 l1.6 -0.84 l0.06 -0.53 l-2 -0.27 L1460.02 526 l-1.68 -1.45 c-0.35 0.72 -0.18 0.25 -0.28 1.47 l2.03 0.22 c-0.4 3.59 -0.42 2.13 -1.4 4.4 c-3.03 7.04 0.44 16.39 -1.29 24.81 c-1.89 -1.82 -1.31 -1.07 -1.78 -4.17 l1.27 -2.38 l-1.04 -1.36 c-1.33 -0.05 -2.54 -0.1 -3.87 -0.21 c-0.46 -3.82 -0.35 -5.03 -0.06 -8.8 l-0.66 -0.37 c-1.62 3.67 -0.32 10.87 -1.04 12.77 c-3.14 8.29 -0.14 60.98 -2.9 63.78 c-0.27 -3.9 -0.17 -8.19 -0.13 -12.12 c0.28 -35.61 -0.35 -71.31 0.84 -106.91 c0.52 -15.71 3.58 -30.71 1.95 -46.36 c-0.38 -3.7 -1.44 -6.65 -1.57 -10.38 c-0.93 -26.21 -1.25 -52.43 -0.99 -78.65 Z" fill="rgb(37,76,80)" transform="translate(0)"/>
<path d="M1386.27 798.3 c4 5.82 -1.04 51.64 4.35 61.64 l-0.27 0.91 c-0.32 1.12 -0.25 0.66 -0.32 1.53 l1.6 0.13 l1.43 -3.37 c3.17 5.33 -0.93 7.76 1.5 13.25 L1396 872.67 c0.41 -1.5 0.84 -2.99 1.2 -4.51 c2.14 2.65 3.39 4.97 2.75 8.25 c-2.06 10.6 0.51 12.85 3.87 22.36 c0.5 1.4 -2.68 2.28 -0.71 8.8 c0.41 -1.83 0.86 -3.64 1.35 -5.45 c2.28 5.67 1.86 61.01 0.68 69.97 c-1.74 1.45 -7.16 5.41 -6.9 7.32 c0.3 2.27 -0.26 7.55 0.99 9.24 c0.15 -2.96 -0.04 -8.32 1.28 -10.47 l0.97 0.85 l-0.87 5.59 c1.18 0.86 1.09 0.95 2.52 0.96 c-0.45 5.07 -6.58 10.79 -7.76 15.89 c-0.68 2.95 1.25 5.99 -0.5 8.07 c-1.06 -2.25 -4.35 -8.38 -4.26 -10.4 l0.69 -0.38 l-0.24 -0.58 c-0.01 2.19 -0.15 2.29 -0.97 4.3 c-3.27 7.98 -1.21 69.59 -3.74 72.22 c-0.72 -8.55 -0.15 -26.33 -0.11 -35.27 l0.4 -68.15 c1.72 -58.1 -1.38 -114.96 -0.37 -172.98 Z" fill="rgb(40,71,94)" transform="translate(0)"/>
<path d="M1488.11 379.8 c3.34 0.39 8.74 1.6 12.2 2.27 c12.26 11.88 9.88 28.29 -7.95 31.72 c-1.13 27.23 -0.5 58.94 -0.55 86.52 l18.55 18.57 l0.06 116.27 c-0.01 7.71 -0.66 52.99 0.9 57.74 l-4.1 4.34 c-0.95 -58.14 -0.12 -118.62 -0.08 -176.94 L1488.33 501.63 c-0.34 -29.33 0.53 -59.77 -0.56 -88.96 c-9.96 -2.93 -18.69 -7.41 -14.51 -20.5 c2.37 -7.43 8.09 -9.61 14.85 -12.36 Z" fill="rgb(35,115,113)" transform="translate(0)"/>
<path d="M1487.94 387.79 c13 0.45 14.39 11.25 3.98 18.5 c-10.23 0.1 -14.2 -11.07 -3.98 -18.5 Z" fill="rgb(37,207,214)" transform="translate(0)"/>
<path d="M1493.86 289.8 c16.4 -20.63 42.16 -38.8 60.09 -57.6 c23.12 -24.24 44.85 -49.5 69.86 -72.13 c-1.46 9.2 -20.51 20.92 -24.35 29.68 l0.72 0.27 c2.31 -2.17 4.08 -3.58 6.55 -5.5 l0.72 0.36 c-3.35 6.52 -8.55 12.41 -11.47 18.27 c-7.45 14.98 -15.86 22.03 -27.88 33.28 c-19.54 18.3 -40.12 38.73 -65.45 48.77 c-3.26 1.3 -5.11 3.58 -8.79 4.61 Z" fill="rgb(37,76,80)" transform="translate(0)"/>
<path d="M1378.81 704.06 c4.53 -0.95 6.02 -1.5 10.4 -0.17 l3.52 3.07 c2.23 8.03 1.18 11.37 -6.48 15.15 l-3.67 0.31 l-0.93 -0.27 c-6.04 -4.9 -7.16 -6.75 -5.25 -14.15 l2.41 -3.93 Z" fill="rgb(37,234,244)" transform="translate(0)"/>
<path d="M1547.43 330.62 c-9.94 -5.6 -6.38 -16.55 1.26 -16.83 c10.71 -0.39 14.93 11.02 4.04 17.3 l-5.3 -0.47 Z" fill="rgb(37,234,244)" transform="translate(0)"/>
<path d="M1155.74 372.27 c6.64 -6.79 12.1 -5.23 17.78 -14.9 c-0.04 -3.29 -0.67 -8.29 0.78 -10.72 c6.66 3.66 28.9 26.87 35.59 33.55 l60 60.11 l0.14 178.73 l0.14 50.01 c0.02 6.03 0.26 22.13 -0.68 27.39 c-11.21 -12.74 -26.31 -26.03 -38.42 -39.47 L1231.1 517.54 L1155.87 442.1 c0.17 -23.28 0.12 -46.56 -0.13 -69.83 Z" fill="rgb(43,54,75)" transform="translate(0)"/>
<path d="M1080.6 0 h3.42 H1149.49 h3.36 L1152.81 119.74 c4.93 4.91 15.04 15.56 20 19.57 c4.66 4.77 9.37 9.5 14.11 14.2 c-0.08 13.06 0.14 26.12 0.64 39.18 c0.26 5.54 1.7 17.84 1.46 22.19 c-0.82 14.94 -3.48 38.3 -1.15 53.06 c-2.77 0.24 -4.56 -0.35 -7.26 -0.95 l-2.45 0.52 l-2.87 2.29 c-2.34 -1.5 -16.34 -16.02 -19.21 -18.93 L1112.42 206.91 c-1.2 -4.88 -0.44 -44.25 -0.36 -50.74 c-9.82 -10.22 -21.09 -20.89 -31.26 -30.89 L1080.6 0 Z" fill="rgb(43,54,75)" transform="translate(0)"/>
<path d="M1149.49 0 h3.36 L1152.81 119.74 c4.93 4.91 15.04 15.56 20 19.57 c4.66 4.77 9.37 9.5 14.11 14.2 c-0.08 13.06 0.14 26.12 0.64 39.18 c0.26 5.54 1.7 17.84 1.46 22.19 c-0.82 14.94 -3.48 38.3 -1.15 53.06 c-2.77 0.24 -4.56 -0.35 -7.26 -0.95 l1.14 -0.82 c3.85 -7.56 -1.7 -32.89 -2.86 -41.54 c-2.17 -16.1 0.15 -21.75 3.5 -36.52 c1.51 -6.69 0.73 -25 0.74 -32.74 c-9.35 -10.82 -23.3 -24.21 -33.64 -34.62 V0 Z" fill="rgb(40,188,194)" transform="translate(0)"/>
<path d="M1112.06 46.07 c2.04 0.27 2.8 -0 4.77 -0.4 c-1.56 10.69 -0.9 41.77 -0.89 53.45 l0.09 106.73 c16.73 16.66 45.41 47.16 62.13 61.66 l-2.87 2.29 c-2.34 -1.5 -16.34 -16.02 -19.21 -18.93 L1112.42 206.91 c1.22 -7.55 0.6 -55.56 0.6 -66.32 L1112.98 80.88 c-0.01 -7.69 0.3 -27.23 -1 -34.06 l0.08 -0.75 Z" fill="rgb(37,234,244)" transform="translate(0)"/>
<path d="M1080.6 0 h3.42 c0.15 40.89 0.5 82.58 0.13 123.46 c9.14 9.23 18.41 18.31 27.83 27.24 L1111.81 77.73 c-0.01 -5.02 -0.52 -26.99 0.17 -30.91 c1.3 6.83 0.99 26.37 1 34.06 l0.04 59.71 c0 10.76 0.62 58.77 -0.6 66.32 c-1.2 -4.88 -0.44 -44.25 -0.36 -50.74 c-9.82 -10.22 -21.09 -20.89 -31.26 -30.89 L1080.6 0 Z" fill="rgb(35,115,113)" transform="translate(0)"/>
<path d="M1112.06 46.07 c-12.5 -7.21 -6.6 -18.62 3.72 -17.82 c9.14 0.7 10.04 11.95 1.05 17.42 c-1.97 0.4 -2.73 0.68 -4.77 0.4 Z" fill="rgb(37,234,244)" transform="translate(0)"/>
<path d="M855.38 270.8 c3.58 0.68 2.29 0.9 5.21 -0.36 c-1.76 20.11 -0.5 48.78 -0.72 69.67 L995.12 475.74 c0.01 -28.55 0.79 -61.12 -0.14 -89.33 c0.32 -4.06 1.02 -9.21 0.1 -13.06 l0.08 -7.51 l2.1 1.28 l1.87 -2.43 c0.29 8.07 -0.36 16.27 -0.05 23.84 L1000.52 378 c5.14 -2.44 11.4 -5.76 16.8 -7.21 c6.65 -1.79 13.56 2.46 20.17 2.86 c1.56 19.95 -0.46 45.98 0.31 66.49 c0.24 6.28 -0.52 18.39 0.5 24.18 c2.37 -9.55 -0.58 -65.32 0.32 -78.53 c0.36 -5.26 -0.82 -14 0.84 -19.49 l2.94 -1.2 c-0.36 22.44 -0.51 44.89 -0.42 67.33 c-0.01 5.84 -0.36 27.67 0.57 32.6 L998.77 508.97 l0.07 43.06 l57.43 57.4 c7.92 7.92 21.51 22.31 29.6 29.25 c6 7.35 13.87 15.25 21.79 19.57 c8.46 4.61 13.61 3.74 13.01 14.05 c-0.01 0.25 4.91 5.95 5.63 6.62 c16.3 17.63 35.61 33.75 52.25 50.77 c20.22 20.67 39.96 42.14 60.57 62.49 c2.31 2.28 16.29 16.66 18.27 17.93 c20.49 21.94 43.55 43.63 64.7 65.14 L1322.05 1143 h-3.56 c0.08 -22.65 -0.13 -46.49 -0.77 -69.13 c-0.26 -9.29 -3.99 -16.62 -4.11 -29.14 c-0.17 -17.57 2.86 -29.75 4.08 -46.47 c1.04 -14.28 0.71 -32.74 0.8 -47.26 c-26.77 -24.87 -55.68 -55.16 -81.78 -81.26 c-26.87 -0.32 -85.08 -0.84 -114.67 0.58 l-2.6 2.51 c-0.71 -2.18 -0.77 -2.19 -2.06 -4.12 c-24.01 -1.45 -54.59 0.55 -79.26 -0.25 c-8.47 -0.27 -46.33 -0.32 -51.92 0.76 L925.5 808.51 h-113.88 c-3.25 8.51 -9.28 12.49 -17.78 9.44 c-19.98 -7.18 5.9 -42.55 18.78 -12.46 h113.88 l61 61 L1175.26 866.25 c-28.68 -28.08 -57.27 -57.31 -85.55 -85.87 c-9.47 0.12 -24.62 0.77 -33.65 0.07 l0.28 -1.41 l-1.79 -2.54 c11.44 0.88 24.83 0.57 36.45 0.57 l89.04 89.25 c19.21 -0.19 38.42 -0.14 57.62 0.14 c26.16 24.48 55.06 54.8 80.78 80.42 v-70.3 C1279.79 838.2 1241.2 799.7 1202.65 761.21 c-8.63 -8.62 -19.01 -14.77 -26.83 -22.37 c-6.17 -6 -14.42 -17.4 -20.71 -24.23 c-9.31 -10.13 -19.17 -19.88 -28.5 -29.49 c-14.61 -15.04 -11.73 0.3 -24.35 -12.87 c-12.6 -1.64 -42.68 -0.94 -56.6 -0.96 c-14.91 15.55 -31.02 31.21 -46.3 46.48 c-7.44 -1.28 -45.31 -0.65 -54.71 -0.64 L822.76 717.26 c1.35 -0.58 0.92 -0.45 1.99 -1.7 L822.25 713.7 c46.9 0.3 102.02 1.55 148.34 0.08 c7.64 0.49 19.75 0.15 27.74 0.2 L1040.68 671.34 L909.74 671.31 L878.81 639.68 c-0.58 -1.81 -2.57 -4.34 -3.74 -6 l0.75 -1.41 c11.83 11.09 24.07 23.97 35.52 35.61 c19.08 -0.02 183.71 1.4 190.85 -1.28 l1.42 -1.61 c-1.5 -6.35 -17.5 -20.12 -22.68 -26.26 c-2.21 -1.12 -3.63 -3.09 -5.31 -4.99 c-23.58 -25.45 -55.59 -56.16 -80.42 -80.82 L995.09 480.29 L856.27 341.45 c-0.27 -17.77 1.16 -54.79 -0.9 -70.65 Z" fill="rgb(37,207,214)" transform="translate(0)"/>
<path d="M1000.52 378 c5.14 -2.44 11.4 -5.76 16.8 -7.21 c6.65 -1.79 13.56 2.46 20.17 2.86 c1.56 19.95 -0.46 45.98 0.31 66.49 c0.24 6.28 -0.52 18.39 0.5 24.18 c-11.6 12.66 -27.15 27.46 -39.53 39.92 L999.07 388.53 L1000.52 378 Z" fill="rgb(43,54,75)" transform="translate(0)"/>
<path d="M796.57 798.68 c4.4 -1.84 9.47 0.2 11.37 4.58 c1.9 4.38 -0.06 9.47 -4.41 11.44 c-2.87 1.3 -6.22 0.95 -8.76 -0.91 c-2.54 -1.86 -3.88 -4.95 -3.51 -8.07 c0.37 -3.13 2.4 -5.81 5.31 -7.03 Z" fill="rgb(35,228,151)" transform="translate(0)"/>
<path d="M1382.58 722.42 l3.67 -0.31 c-0.15 24.38 -0.66 51.91 0.02 76.19 c-1.01 58.02 2.09 114.88 0.37 172.98 l-0.4 68.15 c-0.04 8.94 -0.61 26.72 0.11 35.27 l-0.29 5.99 c0.66 20.66 -0.07 41.62 0.02 62.31 h-3.09 h-1.32 c-0.01 -43.78 -1.33 -87.18 -1.44 -130.92 c-0.01 -3.79 0.75 -7.95 -2.46 -10.37 c-2.94 3.35 -0.7 6.5 -3.38 10.57 l-1.07 -0.87 l1 -3.71 c-2.04 -1.01 -2.47 -1.11 -4.06 -2.68 c5.82 -4.55 -6.53 -15.42 -4.27 -21.66 l2.27 1.23 l1.7 -1.47 c-0.32 -2.23 -0.47 -2.45 -1.44 -4.52 c-1.21 2.01 -1.11 1.94 -3.05 3.24 l-0.82 -0.76 c0.49 -7.03 0.77 -13.08 0.84 -20.13 l-0.82 -0.7 c-2.67 3.9 -1.57 9.25 -1.54 14.87 l-0.77 0.57 c-6.29 -14.45 -0.08 -10.92 0.36 -19.88 l-1.27 -1.36 l-1.6 2.72 l-0.56 -2.02 c4.68 -7.85 -0.31 -41.72 1.67 -52.35 c1.84 -9.82 8.4 -5.63 1.41 -16.54 c-0.04 -1.67 -0.09 -0.86 1.3 -2.69 c2.33 -0.93 2.97 -1.37 5.1 -2.73 c2.95 -10.22 -1.69 -13.62 -1.81 -22.87 l0.97 3.67 c-0.38 -4.33 0.56 -11.43 3.83 -14.55 c0.74 2.58 0.01 5.28 -0.42 8.02 c3.49 -3.55 2.52 -3.5 6.62 -4.54 c3.95 -6.52 2.33 -22.38 2.69 -30.56 c1.44 -32.57 0.76 -65.27 1 -97.87 l0.93 0.27 Z" fill="rgb(40,71,94)" transform="translate(0)"/>
<path d="M1382.58 722.42 l3.67 -0.31 c-0.15 24.38 -0.66 51.91 0.02 76.19 c-1.01 58.02 2.09 114.88 0.37 172.98 l-0.4 68.15 c-0.04 8.94 -0.61 26.72 0.11 35.27 l-0.29 5.99 c-0.63 2.42 -1.08 5.31 -1.54 7.81 l-0.36 0.05 l0.85 -1.43 l-0.86 0.38 c0.26 -7.37 0.26 -11.4 -1.15 -18.67 c-0.65 -7.62 -0.21 -23.45 -0.24 -31.62 c-0.03 -21.71 -0.2 -43.41 -0.52 -65.12 c-0.13 -13.37 -1.43 -27.7 -1.36 -40.85 c0.07 -14.28 1.56 -29.12 1.56 -43.6 c0 -54.77 1.25 -110.5 0.14 -165.22 Z" fill="rgb(37,234,244)" transform="translate(0)"/>
<path d="M1383 1068.83 c1.41 7.27 1.41 11.3 1.15 18.67 l0.86 -0.38 l-0.85 1.43 l0.36 -0.05 c0.46 -2.5 0.91 -5.39 1.54 -7.81 c0.66 20.66 -0.07 41.62 0.02 62.31 h-3.09 c-0.26 -24.72 -0.25 -49.45 0.01 -74.17 Z" fill="rgb(37,207,214)" transform="translate(0)"/>
<path d="M973.77 360.16 c8.42 -8.91 -3.42 -47 45.98 -18.14 l-2.38 1.52 l0.52 1.14 c8.01 1.06 25.33 -26.41 44.61 5.33 c0.16 6.34 0.79 15.69 -4.74 19.73 c-16.12 11.8 -13.37 -0.47 -14.82 22.1 c-0.81 12.61 1.83 64.44 -0.39 73.19 c-0.93 -4.93 -0.58 -26.76 -0.57 -32.6 c-0.09 -22.44 0.06 -44.89 0.42 -67.33 l-2.94 1.2 c-1.66 5.49 -0.48 14.23 -0.84 19.49 c-0.9 13.21 2.05 68.98 -0.32 78.53 c-1.02 -5.79 -0.26 -17.91 -0.5 -24.18 c-0.77 -20.51 1.25 -46.54 -0.31 -66.49 c-6.61 -0.4 -13.52 -4.65 -20.17 -2.86 c-5.4 1.45 -11.66 4.77 -16.8 7.21 L999.07 388.53 c-0.3 -7.57 0.34 -15.77 0.05 -23.84 l-1.87 2.43 l-2.1 -1.28 l-0.08 7.51 l-0.61 6.52 l-1.08 0.04 c-2.75 -3.84 -14.88 -14.68 -19.63 -19.75 Z" fill="rgb(40,71,94)" transform="translate(0)"/>
<path d="M995.16 365.84 c-29.61 -30.44 33.78 -17.19 3.97 -1.15 l-1.87 2.43 l-2.1 -1.28 Z" fill="rgb(37,234,244)" transform="translate(0)"/>
<path d="M1039.46 366.3 c-4.61 -3.48 -11.37 -9.34 -5.95 -15.64 c1.75 -2.01 4.25 -3.21 6.91 -3.34 c9.72 -0.55 13.89 11.42 1.98 17.78 l-2.94 1.2 Z" fill="rgb(37,234,244)" transform="translate(0)"/>
<path d="M1085.87 638.67 c1.31 -0.02 11.48 3.27 11.72 3.95 l-2.09 1.54 c6.24 3.8 24.84 2.6 29.12 6.88 c6.76 6.76 4.62 19.79 18.74 23 l0.84 1 c-1.99 0.82 -3.03 1.19 -5.1 1.77 c5.22 1.66 5.21 -3.38 10.14 3.16 c3.22 4.27 12.05 5.1 13.8 6.86 c7.52 7.5 19.3 20.09 25.09 28.47 c3.86 1.06 5.66 0.69 7.34 4.38 c4.63 10.23 6.5 9.23 14.29 15.49 c1.03 0.83 4.84 8.08 6.01 10.16 c4.1 0.73 3.28 -0.08 5.09 2.46 c-1.67 1.38 -1.67 0.99 -4.15 1.44 c3.35 4.29 7.6 9.49 11.33 13.41 c1.72 1.8 -2.28 6.42 2.61 9.2 l2.9 -0.31 l0.73 1.37 l-1.85 3.01 l0.27 0.95 c0.3 1.07 0.35 1.25 0.32 2.4 c-0.81 -1.34 -1.3 -2.31 -2.45 -3.4 l-0.65 1.75 c4.02 8.33 27.84 24.65 27.47 32.5 c-1.98 -1.26 -15.96 -15.65 -18.27 -17.93 c-20.61 -20.34 -40.35 -41.82 -60.57 -62.49 c-16.64 -17.02 -35.95 -33.14 -52.25 -50.77 c-0.72 -0.67 -5.64 -6.37 -5.63 -6.62 c0.6 -10.32 -4.55 -9.44 -13.01 -14.05 c-7.92 -4.32 -15.79 -12.22 -21.79 -19.57 Z" fill="rgb(40,71,94)" transform="translate(0)"/>
<path d="M1152.29 370.01 c0.23 -4.05 -0.37 -4.17 1.59 -7.17 c2.23 2.67 1.78 5.73 1.86 9.44 c0.25 23.28 0.3 46.56 0.13 69.83 L1231.1 517.54 L1231.07 656.99 c12.11 13.44 27.21 26.73 38.42 39.47 c1.47 2.44 1.77 2.54 4.1 4.29 c26.11 23.97 54.92 55.11 80.37 80.48 L1354.07 1143 h-3.46 L1350.49 782.2 L1227.78 659.07 v-140.02 L1152.26 443.73 c-0.19 -24.57 -0.18 -49.15 0.03 -73.72 Z" fill="rgb(34,153,116)" transform="translate(0)"/>
<path d="M1123.56 293.75 l2.63 -2.48 c22.12 20.8 44.87 44.88 66.33 66.63 l81.05 81.25 l0.02 261.6 c-2.33 -1.75 -2.63 -1.85 -4.1 -4.29 c0.94 -5.26 0.7 -21.36 0.68 -27.39 L1270.03 619.05 L1269.89 440.32 l-60 -60.11 c-6.69 -6.69 -28.93 -29.89 -35.59 -33.55 c-1.45 2.43 -0.82 7.42 -0.78 10.72 c-5.68 9.66 -11.14 8.11 -17.78 14.9 c-0.08 -3.7 0.37 -6.76 -1.86 -9.44 c-1.96 3 -1.36 3.12 -1.59 7.17 c-3.74 -3.78 -9.52 -1.59 -13.59 -6.92 c-8.07 -10.53 -3.6 -21.73 4.89 -29.43 c4.17 -1.45 10.83 -1.82 15.07 -0.5 l1.17 -1.01 c-2.48 -6.11 -29.97 -32.63 -36.27 -38.4 Z" fill="rgb(35,115,113)" transform="translate(0)"/>
<path d="M1153.5 341.69 c4.6 -0.18 8.5 3.36 8.77 7.96 c0.27 4.6 -3.19 8.57 -7.78 8.93 c-3.06 0.24 -6 -1.19 -7.7 -3.74 c-1.71 -2.55 -1.9 -5.82 -0.51 -8.55 c1.4 -2.73 4.16 -4.49 7.22 -4.61 Z" fill="rgb(35,228,151)" transform="translate(0)"/>
<path d="M1115.42 438.41 c1.48 6.02 0.85 44.29 0.83 52.49 L1116.16 608.45 c5.66 5.69 55.1 56.27 57.81 56.84 l0.66 -0.03 l1.22 2.66 c2.73 -3.21 1.5 -31.44 1.88 -38.58 c0.03 6.78 -0.25 37.42 0.59 41.27 L1340.14 832.55 L1340.36 1143 h-3.41 L1337.02 833.85 C1262.04 761.47 1187.14 683.74 1112.64 610.1 L1112.49 509.36 c-0.02 -10.53 -0.74 -40.12 0.44 -48.76 c2.46 -6.79 -0.75 -17.75 2.49 -22.19 Z" fill="rgb(40,188,194)" transform="translate(0)"/>
<path d="M999.37 717.78 c-21.22 3.86 -158.1 -2.55 -162.41 1.79 c-4.59 4.62 -0.01 9.89 -14.02 16.91 c-6.78 3.4 -13.36 3.82 -20.51 1.27 c-5.99 -2.14 -11.66 -5.96 -14.45 -11.81 c2.06 -9.59 -3.03 -12.07 5.01 -22.75 c7.85 -10.43 10.73 -12.31 24.94 -10.68 l-0.99 0.07 c3.9 0.66 8.32 1.08 11.62 3.11 c3.58 18.13 12.18 17.2 28.09 17.12 c33.62 -0.19 67.24 -0.28 100.86 -0.19 c4.42 0.01 8.8 -0.03 13.09 1.16 C924.27 715.26 869.15 714 822.25 713.7 l2.49 1.86 c-1.06 1.25 -0.64 1.12 -1.99 1.7 L944.66 717.14 c9.4 -0.01 47.27 -0.64 54.71 0.64 Z" fill="rgb(40,71,94)" transform="translate(0)"/>
<path d="M822.76 717.26 c-2.5 3.38 -8.01 9.04 -12.44 6.93 c-16.54 -7.89 2.48 -30.48 11.94 -10.49 l2.49 1.86 c-1.06 1.25 -0.64 1.12 -1.99 1.7 Z" fill="rgb(37,234,244)" transform="translate(0)"/>
<path d="M1313.07 644.19 c-2.06 -8.21 -0.04 -54.7 -2.92 -62.46 c-0.8 4.38 0.23 4.57 -2.48 6.9 l-3.28 -0.44 l-0.61 0.55 c1.34 1.83 4.9 6.18 5.1 8.07 l-3.18 0.25 c1.29 2.12 1.46 1.6 1.04 3.35 l-2.82 -1.89 l-1.96 0.65 l-0.45 -2.02 l1.77 -1.31 l-1.33 -0.83 c-0.6 -0.89 -5.8 -25.16 -5.45 -26.7 l1.15 0.69 c0.56 -2.63 1.06 -4.03 0.64 -6.73 c-0.13 1.81 0 2.66 -1.13 4.08 c-0.6 -1.22 -1.08 -2.05 -1.78 -3.22 c-0.44 1.81 -0.71 3.44 -1.03 5.27 l-1.15 0.21 c-4.68 -16.01 7.03 -11.55 -0.34 -23.93 c-1.12 -1.89 1.5 -5.3 -2.83 -6.67 l-0.77 3.16 c-0.3 -3.16 0.33 -5.81 0.85 -8.94 l1.02 0.83 l-1 -0.81 l2.29 1.17 c1.47 -5.02 -0.44 -3.01 -2.66 -5.34 c0.81 -6.88 3.39 -13.09 6.91 -18.99 l-0.46 -1.59 c-3.49 -2.22 -3.32 -3.65 -3.43 -7.35 l0.94 -0.25 L1296.4 503 c2.95 -2.64 0.11 -13.61 3.42 -18.48 l1.45 0.46 l0.81 3.09 l-1.92 2.6 c0.46 1.28 0.76 2.59 1.11 3.91 c0.38 -2.42 1.89 -7.2 2.63 -9.72 c1.56 -1.17 2.28 -1.52 4.14 -2.1 l-0.13 -0.1 c-0.91 1.47 -1.92 2.68 -2 4.35 l2.17 0.6 c6.73 -6.93 -0.06 -34.34 4.91 -40.22 c1.71 23.56 -0.91 52.01 -0.46 75.92 c0.07 3.82 -1.91 8.85 -1.78 11.91 c0.22 5.53 1.35 11.45 1.66 17.21 c0.96 21.98 1.37 43.99 1.23 65.99 c0 5.5 0.26 21.38 -0.57 25.79 Z" fill="rgb(40,71,94)" transform="translate(0)"/>
<path d="M781.35 512.42 c-13.54 24.79 -34.11 9.13 -30.65 -6.36 c0.7 -3.26 2.72 -6.09 5.58 -7.81 c10.65 -6.37 18.55 -0.59 23.58 9.15 c24.88 1.94 58.95 1 84.38 0.97 c20.52 20.63 41.71 42.4 62.68 62.45 l1.74 0.17 l0.88 3.15 c20.38 19.43 41.11 40.97 61.09 61 c10.34 -0.03 79.15 0.87 85.01 -1.39 c1.68 1.89 3.1 3.86 5.31 4.99 c-28.76 0.69 -62.56 -0.45 -91.9 -0.5 L863.27 511.88 c-25.34 -0.08 -57.17 -0.8 -81.92 0.55 Z" fill="rgb(35,115,113)" transform="translate(0)"/>
<path d="M761.09 500.98 c3.67 -0.34 6.82 -0.22 9.83 2.22 c1.66 1.33 2.7 3.28 2.88 5.4 c0.35 4.17 -2.16 6.66 -4.74 9.46 c-13.04 1.6 -17.77 -7.9 -7.97 -17.07 Z" fill="rgb(37,234,244)" transform="translate(0)"/>
<path d="M1173.97 665.3 c-0.71 -12.01 2.01 -75.61 -3.49 -80.14 c-7.86 -6.46 -11.17 -4 -12.82 -16.23 c-0.72 -5.4 0.44 -10.75 3.9 -15.04 c3.27 -4.07 8.19 -6.22 13.3 -6.71 c2.41 -0.23 9.64 -0.4 11.55 0.99 c0.15 0.11 0.28 0.25 0.42 0.37 l-2.19 1.68 c4.21 6.09 13.25 3.59 12.09 20.37 c-0.36 5.31 -16.14 14.26 -16.56 17.39 c-3.38 25.08 -0.07 57.49 -1.85 82.63 c-0.84 -3.85 -0.56 -34.49 -0.59 -41.27 c-0.38 7.15 0.85 35.37 -1.88 38.58 l-1.22 -2.66 l-0.66 0.03 Z" fill="rgb(37,76,80)" transform="translate(0)"/>
<path d="M1174.12 573.73 c1.27 0.32 2.6 0.34 3.89 0.07 c-0.32 18.51 -0.41 37.02 -0.28 55.54 c-0.38 7.15 0.85 35.37 -1.88 38.58 l-1.22 -2.66 c-0.01 -29.53 0.57 -62.24 -0.51 -91.53 Z" fill="rgb(35,228,151)" transform="translate(0)"/>
<path d="M1174.12 573.73 c-4.3 -1.07 -7.11 -5.19 -6.53 -9.58 c0.58 -4.39 4.36 -7.64 8.79 -7.56 c4.43 0.08 8.09 3.47 8.5 7.88 c0.42 4.41 -2.54 8.42 -6.87 9.34 c-1.29 0.27 -2.62 0.25 -3.89 -0.07 Z" fill="rgb(35,228,151)" transform="translate(0)"/>
<path d="M986.2 869.23 c5.59 -1.08 43.45 -1.04 51.92 -0.76 c24.67 0.8 55.25 -1.2 79.26 0.25 c1.29 1.93 1.35 1.94 2.06 4.12 c-2.47 3.54 -14.71 15.41 -18.18 18.9 L1061.99 931.18 L877.85 931.23 c-3.66 5.33 -6.4 9.25 -13.57 6.81 c-5.69 -5.08 -5.59 -16.41 3.47 -18.3 c6.07 1.46 7.31 3.14 10.43 8.2 c60.1 -0.84 121.99 -0.1 182.23 -0.05 L1117.53 870.03 c-16.84 -0.07 -122.74 1.88 -131.33 -0.79 Z" fill="rgb(36,111,115)" transform="translate(0)"/>
<path d="M996.22 84.17 c-4.54 -2.74 -7.04 -5.13 -8 -10.58 c2.84 -8.64 14.87 -8.34 19.58 -2.09 c1.55 6.52 -2.93 9.82 -8.11 12.72 L999.77 264.77 l26.02 26.09 l93.35 0.06 c2.22 1 2.39 0.99 3.63 2.98 c-29.44 1.35 -68.26 0.21 -98.43 0.24 L996.2 266.09 L996.22 84.17 Z" fill="rgb(40,188,194)" transform="translate(0)"/>
<path d="M873.38 429.89 c-25.88 -0.11 -52.81 -0.8 -78.7 0.5 c-1.95 0.1 -4.57 5.69 -8.77 6.97 c-22.16 -0.16 -4.17 -33.22 8.45 -11.21 L874.51 426.1 L930.14 481.6 c0 14.14 1.79 83.45 -0.61 92.54 L928.65 570.99 L926.92 570.82 L926.75 483.09 L873.38 429.89 Z" fill="rgb(36,111,115)" transform="translate(0)"/>
<path d="M933.73 325.26 c-0.68 -41.98 0.11 -84.14 -0.3 -126.09 c0.01 -6.33 -6.09 -11.16 -7.43 -16.22 c-2.03 -7.73 9.58 -13.03 15.08 -7.36 c7.91 8.15 -4.73 15.04 -4.42 23.78 c0.4 11.41 0.37 22.82 0.38 34.25 l0.09 90.11 c12.13 12.22 24.34 24.37 36.62 36.44 c4.75 5.07 16.88 15.91 19.63 19.75 l1.08 -0.04 l0.61 -6.52 c0.92 3.85 0.22 9 -0.1 13.06 C974.95 367.51 953.39 344.92 933.73 325.26 Z" fill="rgb(36,111,115)" transform="translate(0)"/>
<path d="M756.41 604.03 c-6.75 12.23 -19 6.37 -18.05 -3.27 c0.23 -2.25 1.37 -4.32 3.17 -5.7 c2.62 -2.02 4.61 -2.27 7.74 -2.02 c3.25 1.1 3.74 3.33 5.84 5.6 c4.63 5 74.04 0.92 86.71 1.92 c2.38 0.19 2.91 0.21 4.44 2.03 c1.78 1.73 4.68 4.38 6.19 6.2 c7.17 6.43 16.67 16.4 23.37 23.49 l-0.75 1.41 c1.16 1.65 3.15 4.19 3.74 6 c-8.31 -6.89 -27.17 -27 -35.62 -35.51 L756.41 604.03 Z" fill="rgb(40,188,194)" transform="translate(0)"/>
<path d="M852.46 608.79 L851.24 609.4 c-2.9 -1.6 -3.5 -2.66 -5.45 -5.23 l0.47 -1.59 c1.78 1.73 4.68 4.38 6.19 6.2 Z" fill="rgb(37,234,244)" transform="translate(0)"/>
<path d="M1119.14 290.92 c-1.11 -4.07 -50.25 -52.79 -57.76 -58.94 c-5.55 -1.3 -10.81 2.19 -13.81 -4.23 c-5.55 -11.9 10.5 -20.31 17.32 -7.21 c0.05 2.65 -0.76 7.33 0.61 8.97 c18.17 21.8 42.03 40.7 60.69 61.76 l-2.63 2.48 l-0.79 0.15 c-1.24 -1.99 -1.41 -1.99 -3.63 -2.98 Z" fill="rgb(36,111,115)" transform="translate(0)"/>
<path d="M1180.61 266.98 c2.7 0.61 4.49 1.2 7.26 0.95 c10.32 5.34 3.38 11.21 6.05 16.1 c-0.56 0.48 -1.88 1.68 -2.43 1.99 c-2.35 -0.93 -8.31 2.01 -14.07 -2.38 c-1.97 -6.78 -1.04 -7.98 -2.13 -13.85 l2.87 -2.29 l2.45 -0.52 Z" fill="rgb(37,234,244)" transform="translate(0)"/>
<path d="M1112.49 438.16 c-4.33 -2.79 -7.99 -6.22 -8.06 -11.76 c3.85 -7.96 15 -6.67 19.62 -0.36 c1.38 6.67 -3.06 9.69 -8.63 12.37 c-3.24 4.44 -0.03 15.4 -2.49 22.19 L1112.49 438.16 Z" fill="rgb(37,234,244)" transform="translate(0)"/>
<path d="M1056.06 780.45 c-13.15 18.37 -24.56 -1.13 -15.11 -9.26 c4.37 -3.76 10.47 -0.31 13.6 5.3 l1.79 2.54 l-0.28 1.41 Z" fill="rgb(37,234,244)" transform="translate(0)"/>
<path d="M855.38 270.8 c-18.93 -11.74 7.16 -27.84 12.08 -9.56 c-0.25 4.88 -2.73 7.11 -6.87 9.2 c-2.91 1.26 -1.63 1.04 -5.21 0.36 Z" fill="rgb(37,234,244)" transform="translate(0)"/>
</svg>
